<?xml version="1.0" encoding="utf-8"?>
<!-- Generator: Adobe Illustrator 21.1.0, SVG Export Plug-In . SVG Version: 6.00 Build 0)  -->
<svg version="1.1" id="Layer_1" xmlns="http://www.w3.org/2000/svg" xmlns:xlink="http://www.w3.org/1999/xlink" x="0px" y="0px"
	 viewBox="0 0 109 31" style="enable-background:new 0 0 109 31;" xml:space="preserve">
<style type="text/css">
	.st0{fill:#CA0538;}
	.st1{fill:#FED300;}
	.st2{fill:#1D1D1D;}
</style>
<g>
	<g>
		<g>
			<path d="M11.9,3.2C11.8,3.4,11.8,4,11.5,4c-0.1-0.1-0.2-0.4-0.4-0.4c-0.1,0.2-0.1,0.7-0.4,0.8c-0.1-0.1-0.1-0.4-0.4-0.5
				C10.2,4,9.1,4.6,9.1,4.6c0,0.1,0.9,1.9,1,2c0.2,0.1,1.2,0.5,1.4,0.5c0.2,0,0.3-0.3,0.5-0.3H12c0,0.1,0,0.1,0,0.3
				c0,0.1-0.1,1.1-0.3,1.1L9.7,7.8c-0.2,0-0.7-0.7-1-0.8C9.4,7.8,9.5,9.7,11,9.6c-0.1,0.4-0.7,0.7-1.1,0.7c-1.1,0-1-0.5-1.8-1H8
				c0.3,0.5,0.5,1.1,0.5,1.6c0,0.1-0.1,0.3-0.1,0.5c-0.6-0.3-1.1-0.6-1.7-0.7c-0.7,0.5-1,1.3-1.1,2.1c-0.5,0-0.7-0.7-0.7-1
				c0-0.4,0.1-0.9,0.3-1.4H5.1c-0.4,1.1-1,2.3-2.3,2.6C3,12.5,3,12.2,3,11.7c0-0.7,0.1-1.4,0.4-2.1L3.4,9.6
				c-0.3,0.4-0.8,0.6-1.3,0.6c-0.1,0-0.3,0-0.5-0.1c1.1-0.7,0.6-2.3,1.2-3.6C2.2,6.2,1.7,6.4,1.3,5.8C2.8,5.1,2.9,3,4.3,3
				c0.1,0,0.1-0.1,0.1-0.1L4,0c0,0,2.5,2,2.9,2c0.7,0,4.5-1.9,5-1.9c0.3,0,0.7,2.3,0.7,2.6C12.6,3.1,12,3,11.9,3.2z M38.9,27.6
				c0,0.2-0.1,0.4-0.2,0.4c-0.8,0.1-1.9,0.4-2.6,0.4c-0.1,0-0.1-0.1-0.1-0.1s1.7-2,1.9-2.4c-0.1-0.6-2.3-4-2.7-4.6
				c-0.1-0.1-0.2-0.2-0.3-0.2c-1.6-0.3-3.1-0.7-4.5-1.3c-0.3-0.1-0.5-0.2-0.8-0.4c0-0.1-0.1-0.1-0.1-0.1c-0.1,0-0.1,0.5-0.1,0.7
				c0,1.4,0.8,1.4,1.9,1.2c0,0.7-0.8,0.9-0.8,1.1c0,0.1,0.2,0.1,0.2,0.1c0.2,0,0.4-0.1,0.7-0.1c-0.1,0.7-0.8,0.7-0.8,0.8
				c0,0.2,0.3,0.4,0.5,0.3c-0.2,0.3-0.9,0.7-0.9,0.9c0,0.6,0.1,1.2,0.1,1.8c-0.1,0.1-2.2,0.6-2.5,0.7c-0.1,0-0.3-0.1-0.3-0.1
				s1.4-2.3,1.6-2.5v-0.1c0-1.1-1.6-2.1-2.2-2.7c-0.5-0.4-0.5-1.1-0.7-1.7c0-0.1,0-0.1-0.1-0.1c-0.3,0-1.1,1.1-1.1,1.4
				c0,0.3,0.4,0.4,0.7,0.4c0.1,0,0.4-0.1,0.6-0.1v0.1c0,0.4-0.5,0.7-0.8,0.8c0,0.3,0.6,0.2,0.8,0.2c-0.1,0.4-0.9,0.8-0.9,0.9
				c0,0.1,0.6,0.1,0.7,0.1c-0.1,0.4-0.5,0.7-0.7,1c-0.3,0.6-0.1,1.3-0.1,1.9c0,0.3-0.1,0.4-0.4,0.4l-2.6,0.1c-0.1,0-0.1-0.1-0.1-0.1
				c0-0.4,1.9-2.2,1.9-2.5c0-0.1-0.1-0.2-0.1-0.2c-0.8-1.1-1.6-2.1-2.1-3.3c-0.3,0-1.1,0.2-1.1,0.7c0,0.3,0.8,0.3,1,0.3
				c0.1,0.5-1.6,0.8-1.6,1.1c0,0.1,0.7,0.2,0.8,0.2c-0.4,0.6-1.5,0.5-1.7,0.7c0,0,0,0,0,0.1c0,0.2,0.7,0.3,0.8,0.2
				c-0.4,0.5-1.6,0.4-1.6,0.7c0,0.2,0.6,0.3,0.6,0.4c0,0.2-1.1,0.4-1.3,0.6c-0.1,0.2-0.5,1.6-1.1,2.2c-0.1,0-1.9-1.4-1.9-1.6
				c0-0.3,1.9-1.3,2.2-1.7c0-0.1,0.9-3.7,0.9-3.9c0-0.1-0.1-0.1-0.3-0.1c-0.7,0-1.4,0.3-2.2,0.3c-0.3,0-0.6-0.1-0.8-0.1
				c-0.2,0-0.6,0.7-0.6,0.9c0,0.4,0.4,0.4,0.7,0.4c0.2,0,0.5,0,0.7-0.1c-0.4,0.8-1.7,0.8-1.7,1.4c0,0.1,0.4,0.2,0.6,0.2
				c0.2,0,0.4-0.1,0.7-0.1c-0.5,1-1.7,0.8-1.7,1.2c0,0.3,0.7,0.2,0.8,0.2c-0.2,0.7-1,0.5-1.4,1.3c-0.1,0.3-0.6,1.7-0.7,1.7
				c-0.1,0-0.1,0-0.1,0c-0.2-0.2-1.6-1.3-1.6-1.5c0-0.4,1.6-0.7,1.6-1.9c0-0.7-0.3-1.3-0.5-1.9c-0.2-0.7-0.1-1.2-0.1-1.9
				c0-0.1,0-0.1-0.1-0.1c-0.7-0.1-1.2-0.3-1.9-0.6c0,0,0,0-0.1,0H9.2v0.9c0,0.7,0.9,0.7,1.4,0.7v0.1c0,0.6-1.1,0.7-1.1,1.1
				c0,0.3,0.8,0.6,1.1,0.7c-0.2,0.3-0.9,0.8-0.9,0.9c0,0.3,0.4,0.5,0.7,0.5c-0.2,0.6-0.8,0.8-0.8,1.1c0,0.2,0.1,0.4,0.3,0.5
				C7.4,28,8.3,30.9,7.2,31c-0.3,0-0.6,0-0.8,0c-0.4,0-0.9,0-1.3-0.1c-0.1,0-0.1,0-0.1-0.1C5,30.3,7,28.8,7,27.2c0-0.1,0-0.2,0-0.3
				C6.4,23.4,5.1,20,4.4,16.5c-0.1-0.7-0.2-1.4-0.2-2c0-0.7,0.1-1.4,0.4-2.1c0.1,0.6,0.8,1.1,1.4,1.1C6,13.2,6.6,11.4,7,11.4
				c0.4,0,1.2,0.4,1.6,0.7c0.4-0.4,0.5-0.8,0.6-1.4c0.3,0.1,0.6,0.3,0.9,0.3c0.8,0,1.4-0.4,1.9-1.1c0.1,0.3,0.1,0.6,0.1,0.8
				c0,0.5-0.4,1.6-0.4,1.8h0.1c0.5,0,1.6-1.4,1.9-1.7c0.2,0.3,0.3,0.7,0.3,1c0,0.4-0.2,0.8-0.2,1.2c0,0.1,0.1,0.1,0.1,0.1
				c0.7,0,1.2-1.5,1.8-1.8c0,0.3,0.1,2,0.4,2c0.1,0,0.7-1.5,1.3-1.6c0,0.3,0.1,1.8,0.4,1.8c0.5,0,0.7-1.6,1.2-1.6
				c0,0.4,0.2,1.6,0.7,1.6c0.4,0,0.1-1.2,0.7-1.5c0.1,0.4,0.5,1.2,0.9,1.2c0.1-0.1,0.1-1,0.4-1.3c0.2,0.3,0.4,0.7,0.8,0.7
				c0.2,0,0.5-0.1,0.6-0.4c-0.4-0.5-0.7-1.2-0.7-1.8c0-0.8,0.7-1.6,1.6-1.6c0.6,0,1.1,0.5,1.1,1.1c0,0.4-0.2,0.8-0.7,0.8
				c-0.4,0-0.5-0.4-0.8-0.6c0,0.1,0,0.1,0,0.2c0,0.5,0.5,1.1,1,1.1c2.2,0,1.3-6.6,5.7-6.6c1.9,0,3.3,1.5,3.3,3.3
				c0,1.7-1.4,2.6-1.4,2.9v0.1c3,2.2,2.3,7,5.5,7.3c-0.1,0.1-0.1,0.3-0.1,0.4c0,0.3,0.4,0.4,0.6,0.4c0.3,0,0.5,0,0.7-0.1v0.1
				c0.1,0.7-1,0.9-1,1.1c0,0.4,1,0.4,1.2,0.3c-0.1,0.6-0.8,0.7-0.8,0.9c0,0.4,0.5,0.4,0.8,0.4c-0.3,0.4-0.8,0.8-0.8,1.3
				c0,1.1,1.1,1.5,1.6,2.2C38.8,25.9,38.9,26.6,38.9,27.6z M7.8,2.9c-0.3,0-0.5,0.3-0.5,0.6S7.5,4,7.8,4c0.4,0,0.6-0.2,0.6-0.6
				S8.1,2.9,7.8,2.9z M29.9,6.3c-2,0-2.7,4.1-4.2,5.6v0.1c1.2,0,2.6-1.4,3.1-2.3c0.4,0.4,0.8,0.6,1.3,0.6c1.1,0,1.9-0.8,1.9-1.9
				C32.1,7,31.1,6.3,29.9,6.3z"/>
		</g>
		<g>
			<path class="st0" d="M20.9,6.7c-0.7,0-1.3-0.1-1.9-0.3c0,0.2,0.1,0.4,0.1,0.6c-0.3-0.1-0.6-0.2-0.8-0.2c-0.9,0-1.9,0.4-2.8,0.4
				c-1.4,0-2.7-0.9-2.9-0.9c-0.8,0-1.7-0.1-2.3-0.8c0.8-0.7,1.6-1,2.6-1.2c0-0.3-0.4-0.7-0.4-0.8c0-0.1,0,0,0.1,0c1.4,0,2.5-1,3.8-1
				c1.6,0,3.1,0.9,4.8,0.9c0,0.2-0.1,0.3-0.2,0.4C21.1,4,21.4,4,21.6,4c1.1,0,2-0.5,3-0.5c0.4,0,1.4,0.3,1.4,0.8
				C24.7,4.3,24,6.7,20.9,6.7z"/>
		</g>
	</g>
</g>
<path class="st1" d="M71.9,21.2c0-0.7-0.5-1.2-1.2-1.2c-0.7,0-1.2,0.6-1.2,1.2s0.6,1.2,1.2,1.2C71.3,22.4,71.9,21.9,71.9,21.2
	L71.9,21.2z M81.6,13.6c-1-0.9-2.3-1.4-3.7-1.4c-3,0-4.7,2.4-4.7,5.1c0,3.1,1.9,5.1,5.8,5.1c0.6,0,1.1,0,1.7-0.1l0.1-1.9
	c-0.5,0.1-1.2,0.1-1.8,0.1c-2.9,0-3.6-1.4-3.6-3.3c0-1.9,0.8-3.1,2.6-3.1c1.3,0,2.3,0.4,3,1.2L81.6,13.6L81.6,13.6z M92.4,17.4
	c0-2.9-1.1-5.2-4.4-5.2c-3.2,0-4.5,2-4.5,5.1c0,3,1.4,5.1,4.5,5.1C90.7,22.4,92.4,20.6,92.4,17.4L92.4,17.4z M90.5,17.3
	c0,1.7-0.4,3.2-2.4,3.2s-2.5-1.2-2.5-3.1c0-2.4,0.7-3.1,2.5-3.1C89.7,14.2,90.5,15.1,90.5,17.3L90.5,17.3L90.5,17.3z M108.4,22.2
	v-6.5c0-2-0.6-3.5-3.1-3.5c-1.2,0-2.6,0.6-3.3,1.2c-0.5-0.8-1.3-1.2-2.5-1.2c-1.8,0-3.4,1.1-4.7,2.3v7.7h2v-6.9
	c0.8-0.7,1.8-1.2,2.7-1.2c0.8,0,1.1,0.3,1.1,1.5v6.6h2v-6.9c0.8-0.7,1.8-1.2,2.7-1.2c0.8,0,1.1,0.3,1.1,1.5v6.6H108.4z"/>
<path class="st2" d="M52.4,16.1c0,1.1-0.8,1.8-1.7,1.8l-4.4,0.2c0.1,2.3,2.4,2.3,4.1,2.3c0.4,0,0.8,0,1.2-0.1l-0.2,1.9
	c-0.6,0-1.1,0.1-1.6,0.1c-2,0-3.4-0.4-4.3-1.3c-0.9-0.9-1.3-2.2-1.3-3.9c0-3.2,2.2-5.1,4.3-5.1C51.3,12.2,52.4,14.1,52.4,16.1
	L52.4,16.1z M50.5,15.5c0-0.6-0.7-1.4-1.8-1.4c-1.4,0-2.2,1.1-2.3,2.3l3.3-0.2C50.3,16.3,50.5,15.9,50.5,15.5z M62.6,22.2v-6.7
	c0-2-0.8-3.3-3.1-3.3c-1.8,0-3.7,1.1-5,2.3v7.7h2v-6.9c0.8-0.6,2.1-1.2,3-1.2c0.7,0,1.2,0.4,1.2,1.4v6.6
	C60.6,22.2,62.6,22.2,62.6,22.2z M68.2,9.1C68.2,8.5,67.6,8,67,8c-0.6,0-1.2,0.5-1.2,1.2s0.5,1.2,1.2,1.2
	C67.7,10.3,68.2,9.8,68.2,9.1z M67.8,22.2v-10l-2,0.5v9.5H67.8z"/>
</svg>
